<?xml version="1.0" encoding="utf-8"?>
<!-- Generator: Adobe Illustrator 19.1.0, SVG Export Plug-In . SVG Version: 6.00 Build 0)  -->
<svg version="1.1" id="stiff_staff" xmlns="http://www.w3.org/2000/svg" xmlns:xlink="http://www.w3.org/1999/xlink" x="0px"
	 y="0px" viewBox="0 0 527.8 275.4" enable-background="new 0 0 527.8 275.4" xml:space="preserve">
<g>
	<g id="XMLID_2391_">
		<path id="XMLID_2465_" fill="#010202" d="M164.6,57.5L190,34.3h34.1v20.6h-36.8v20.5h36.8v20.6h-59.5V57.5z"/>
		<path id="XMLID_2463_" fill="#010202" d="M269.1,34.3h29.3v61.8h-22.7V54.9h-22.5v41.1h-22.7V13.8h22.7v34.9L269.1,34.3z"/>
		<path id="XMLID_2397_" fill="#010202" d="M334.3,96.1h-29.5V57.5l25.5-23.2h42.4v61.8H350V81.8L334.3,96.1z M350,54.9h-22.5v20.5
			H350V54.9z"/>
		<path id="XMLID_2394_" fill="#010202" d="M447,96.1h-42.8L379.1,73V34.3h42.4L447,57.4V96.1z M401.8,75.4h22.5V54.9h-22.5V75.4z"
			/>
		<path id="XMLID_2392_" fill="#010202" d="M476.1,65.2h27.7v28.1l-25.5,23.2h-17V96.1H481V85.8h-27.7V57.4l25.4-23.1h25v20.6h-27.7
			V65.2z"/>
	</g>
	<g id="XMLID_2835_">
		<path id="XMLID_2389_" fill="#010202" d="M109.4,112.6l9-8.2h13.5V125h-22.5v38.7H86.7V99.2L112.2,76h19.7v20.6h-22.5V112.6z"/>
		<path id="XMLID_2387_" fill="#010202" d="M159,81.4v82.3h-22.7V81.4H159z"/>
		<path id="XMLID_2384_" fill="#010202" d="M232.1,143.1v20.6h-52.3l-15.7-14.3V125l25.4-23.1h42.5v26.7l-15.5,14.4H232.1z
			 M209.4,122.6h-22.5v20.5h22.5V122.6z"/>
		<path id="XMLID_2382_" fill="#010202" d="M238.5,101.9h22.7v14.4l15.8-14.4h29.4v61.8h-22.7v-41.1h-22.5v41.1h-22.7V101.9z"/>
		<path id="XMLID_2380_" fill="#010202" d="M335.5,132.9h27.7V161l-25.5,23.2h-17v-20.5h19.8v-10.3h-27.7V125l25.4-23.1h25v20.6
			h-27.7V132.9z"/>
	</g>
	<g id="XMLID_2836_">
		<path id="XMLID_2377_" fill="#010202" d="M62.8,169.6h29.4v38.7L67,231.4H24.2v-82.3h22.7V184L62.8,169.6z M46.9,190.2v20.5h22.5
			v-20.5H46.9z"/>
		<path id="XMLID_2375_" fill="#010202" d="M166.5,231.4h-22.7V217l-15.8,14.4H98.5v-61.8h22.7v41.1h22.5v-41.1h22.7V231.4z"/>
		<path id="XMLID_2372_" fill="#010202" d="M247.8,245.3l-16.2,14.4l-36.2-40.7v12.3h-22.6v-38.6l25.4-23.2h42.5v37.2l-16.1,14.3
			L247.8,245.3z M218,190.2h-22.5v20.5H218V190.2z"/>
		<path id="XMLID_2369_" fill="#010202" d="M276.6,231.4h-29.5v-38.6l25.4-23.2h42.5v67.3l-22.4,20.4l-22.9,0.2v-20.4l22.5-0.2V217
			L276.6,231.4z M292.3,190.2h-22.5v20.5h22.5V190.2z"/>
	</g>
</g>
</svg>
