<?xml version="1.0" encoding="utf-8"?>
<!-- Generator: Adobe Illustrator 19.1.0, SVG Export Plug-In . SVG Version: 6.00 Build 0)  -->
<svg version="1.1" id="Ebene_1" xmlns="http://www.w3.org/2000/svg" xmlns:xlink="http://www.w3.org/1999/xlink" x="0px" y="0px"
	 viewBox="-141 154.4 136.5 4.8" style="enable-background:new -141 154.4 136.5 4.8;" xml:space="preserve">
<style type="text/css">
	.st0{fill:#4A4949;}
</style>
<rect x="-141" y="159" class="st0" width="136.5" height="0.2"/>
<g>
	<rect x="-141" y="158.1" class="st0" width="10" height="1"/>
	<path class="st0" d="M-37.8,159.1h-23.3v-1h23.3V159.1z M-84.4,159.1h-23.3v-1h23.3V159.1z"/>
	<rect x="-14.5" y="158.1" class="st0" width="10" height="1"/>
</g>
<path class="st0" d="M-131,156.3h-5.9v-2h5.9V156.3z M-136.8,156.2h5.7v-1.8h-5.7V156.2z"/>
<path class="st0" d="M-125.1,156.3h-5.9v-2h5.9V156.3z M-131,156.2h5.7v-1.8h-5.7V156.2z"/>
<path class="st0" d="M-119.3,156.3h-5.9v-2h5.9V156.3z M-125.1,156.2h5.7v-1.8h-5.7V156.2z"/>
<path class="st0" d="M-113.5,156.3h-5.9v-2h5.9V156.3z M-119.3,156.2h5.7v-1.8h-5.7V156.2z"/>
<path class="st0" d="M-107.7,156.3h-5.9v-2h5.9V156.3z M-113.5,156.2h5.7v-1.8h-5.7V156.2z"/>
<path class="st0" d="M-101.8,156.3h-5.9v-2h5.9V156.3z M-107.7,156.2h5.7v-1.8h-5.7V156.2z"/>
<path class="st0" d="M-96,156.3h-5.9v-2h5.9V156.3z M-101.8,156.2h5.7v-1.8h-5.7V156.2z"/>
<path class="st0" d="M-90.2,156.3h-5.9v-2h5.9V156.3z M-96,156.2h5.7v-1.8H-96V156.2z"/>
<path class="st0" d="M-84.3,156.3h-5.9v-2h5.9V156.3z M-90.2,156.2h5.7v-1.8h-5.7V156.2z"/>
<path class="st0" d="M-78.5,156.3h-5.9v-2h5.9V156.3z M-84.4,156.2h5.7v-1.8h-5.7V156.2z"/>
<path class="st0" d="M-72.7,156.3h-5.9v-2h5.9V156.3z M-78.5,156.2h5.7v-1.8h-5.7V156.2z"/>
<path class="st0" d="M-66.9,156.3h-5.9v-2h5.9V156.3z M-72.7,156.2h5.7v-1.8h-5.7V156.2z"/>
<path class="st0" d="M-61.1,156.3H-67v-2h5.9V156.3z M-66.9,156.2h5.7v-1.8h-5.7V156.2z"/>
<path class="st0" d="M-55.2,156.3h-5.9v-2h5.9V156.3z M-61.1,156.2h5.7v-1.8h-5.7V156.2z"/>
<path class="st0" d="M-49.4,156.3h-5.9v-2h5.9V156.3z M-55.2,156.2h5.7v-1.8h-5.7V156.2z"/>
<path class="st0" d="M-43.6,156.3h-5.9v-2h5.9V156.3z M-49.4,156.2h5.7v-1.8h-5.7V156.2z"/>
<path class="st0" d="M-37.8,156.3h-5.9v-2h5.9V156.3z M-43.6,156.2h5.7v-1.8h-5.7V156.2z"/>
<path class="st0" d="M-31.9,156.3h-5.9v-2h5.9V156.3z M-37.8,156.2h5.7v-1.8h-5.7V156.2z"/>
<path class="st0" d="M-26.1,156.3H-32v-2h5.9V156.3z M-31.9,156.2h5.7v-1.8h-5.7V156.2z"/>
<path class="st0" d="M-20.3,156.3h-5.9v-2h5.9V156.3z M-26.1,156.2h5.7v-1.8h-5.7V156.2z"/>
<path class="st0" d="M-14.5,156.3h-5.9v-2h5.9V156.3z M-20.3,156.2h5.7v-1.8h-5.7V156.2z"/>
<path class="st0" d="M-8.6,156.3h-5.9v-2h5.9V156.3z M-14.5,156.2h5.7v-1.8h-5.7V156.2z"/>
<path class="st0" d="M-4.5,156.3h-4.3v-2h4.3V156.3z M-8.6,156.2h4.1v-1.8h-4.1V156.2z"/>
<path class="st0" d="M-136.8,156.3h-4.3v-2h4.3V156.3z M-141,156.2h4.1v-1.8h-4.1V156.2z"/>
</svg>
