<?xml version="1.0" encoding="utf-8"?>
<!-- Generator: Adobe Illustrator 19.1.0, SVG Export Plug-In . SVG Version: 6.00 Build 0)  -->
<svg version="1.1" id="Ebene_1" xmlns="http://www.w3.org/2000/svg" xmlns:xlink="http://www.w3.org/1999/xlink" x="0px" y="0px"
	 viewBox="215 -46.5 849 388.1" style="enable-background:new 215 -46.5 849 388.1;" xml:space="preserve">
<style type="text/css">
	.st0{display:none;}
	.st1{fill:#D91C2A;}
</style>
<g id="ref" class="st0">
</g>
<g id="base_clr">
</g>
<g id="shd_addtnl">
</g>
<g id="shd_clr">
</g>
<g id="wll">
</g>
<g id="scrbbl">
</g>
<g id="font">
</g>
<g id="wifi">
	<g id="shd">
	</g>
</g>
<g id="fin">
</g>
<g id="typo">
</g>
<g>
	<g id="typo_1_">
		<path class="st1" d="M448.3,59.1h34.2V38.8h-34.3L448.3,59.1L448.3,59.1z M416,112.1h28V-9.1h-28V112.1z M448.3,11.2h36.4V-9.1
			h-36.4V11.2z"/>
		<path class="st1" d="M494.4,22.2c-0.1-21.7,13.3-33,40.3-33.9V8.1c-7.9,0.8-11.8,5.1-11.8,13v60.8c0,8,3.9,12.3,11.8,13.1v19.4
			c-26.8-0.8-40.2-13-40.3-36.8L494.4,22.2L494.4,22.2z M511.4-32.4h20.4v16.8h-20.4V-32.4z M551.8,21.1c0-8.1-4.1-12.4-12.2-13.1
			v-19.8c27.3,0.2,41,11.6,41.1,34.4v55.5c-0.1,23.6-13.7,35.7-41.1,36.3V95c8.2-0.6,12.2-5,12.2-13.1V21.1L551.8,21.1z M542.8-32.4
			h20.6v16.8h-20.6V-32.4z"/>
		<path class="st1" d="M595.2-9.1h27.7v121.2h-27.7V-9.1z M637.6,40c8.8-0.1,13.1-4.9,12.9-14.5c0-9.6-4.3-14.4-13.1-14.3h-9.3V-9.1
			h8.6c28.3,0,42.4,10.8,42.3,32.3c0.1,15.7-5.3,24.6-16.3,26.7c11.6,3,16.9,12.6,15.8,28.9l-0.1,22.4c0,5,0.7,8.6,2,10.8H652
			c-1.4-2.4-2.1-6-1.8-10.9l-0.1-25.3c-0.2-10.5-4.4-15.7-12.7-15.6H628V39.9L637.6,40L637.6,40z"/>
		<path class="st1" d="M694.7-9.1h27.8v121.2h-27.7L694.7-9.1L694.7-9.1z M726.7,11.5V-9.1h14.6c25.7,0,38.6,11.3,38.6,34v52.7
			c-0.1,22.9-13.1,34.4-39.1,34.5h-14.2V91.5h10c9.9,0.1,14.8-3.5,14.6-10.8V24c0-8.4-5-12.5-15-12.4L726.7,11.5L726.7,11.5z"/>
		<path class="st1" d="M794.5-9.1h28v121.2h-28V-9.1z M826.8-9.1h36.4v20.3h-36.4V-9.1z M826.8,38.9h34.3v20.3h-34.3V38.9z
			 M863.2,112.1h-36.4v-21h36.4V112.1z"/>
		<path class="st1" d="M415.8,131H449v143.8h-33.2V131z M454.1,131h43.2v24.1h-43.2V131z M454.1,187.9h40.7V212h-40.7V187.9z"/>
		<path class="st1" d="M557.1,277.6c-31.8-0.9-47.7-15.5-47.8-43.6V131h33.8v108c0,9.5,4.7,14.7,14,15.5V277.6z M562.8,254.5
			c9.7-0.7,14.5-5.9,14.5-15.5V131h34.2v103.5c-0.1,28-16.3,42.3-48.7,43.1V254.5z"/>
		<path class="st1" d="M629.2,131H660v143.8h-30.8V131z M699.8,215.8v49.3l-35.7-72.7v-49.9L699.8,215.8z M703.8,131H735v143.8
			h-31.1L703.8,131z"/>
		<path class="st1" d="M786.6,274.8h-33.3V131h33.3V274.8z M791.9,225v-41.3l14.9-24.6L862,274.7h-35.3l-27.9-60.2L791.9,225z
			 M824.1,131h34.7l-34.4,49.6l-13.3-27.3L824.1,131z"/>
	</g>
	<g>
		<path class="st1" d="M416.7,303.5h6.1v26.4h-6.1V303.5z M423.7,307.9v-4.4h7.9v4.4H423.7z M423.7,318.3v-4.4h7.5v4.4H423.7z"/>
		<path class="st1" d="M433.4,329.9v-18h5.5v18H433.4z M439.7,313.5c1-1.3,2.5-1.9,4.6-1.9v4.6c-1-0.4-1.9-0.4-2.7-0.2
			s-1.4,0.6-1.8,1.2V313.5z"/>
		<path class="st1" d="M452,318.8h1.8v2.7H452v2.5c0,1.4,0.6,2.2,1.8,2.4v3.9c-4.9-0.1-7.4-2.4-7.4-6.6v-6.1c0-4,2.5-6.1,7.4-6.2v4
			c-1.1,0.1-1.7,0.8-1.8,2.1V318.8z M454.7,321.5v-2.7h1.9v-1.4c0-1.2-0.6-1.9-1.9-2.1v-4c5,0.1,7.5,2.2,7.4,6.3l0,3.8H454.7z
			 M462.1,323.7c0,4.2-2.5,6.4-7.4,6.6v-4c1.3-0.2,1.9-1,1.9-2.3v-0.5h5.5V323.7z"/>
		<path class="st1" d="M465.2,309.4v-4.3h5.5v4.3H465.2z M465.2,329.9v-18h5.4v18H465.2z"/>
		<path class="st1" d="M479.4,318.8h1.8v2.7h-1.8v2.5c0,1.4,0.6,2.2,1.8,2.4v3.9c-4.9-0.1-7.4-2.4-7.4-6.6v-6.1c0-4,2.5-6.1,7.4-6.2
			v4c-1.1,0.1-1.7,0.8-1.8,2.1V318.8z M482.1,321.5v-2.7h1.9v-1.4c0-1.2-0.6-1.9-1.9-2.1v-4c5,0.1,7.5,2.2,7.4,6.3l0,3.8H482.1z
			 M489.5,323.7c0,4.2-2.5,6.4-7.4,6.6v-4c1.3-0.2,1.9-1,1.9-2.3v-0.5h5.5V323.7z"/>
		<path class="st1" d="M497,323.3c0,1.8,1,2.8,2.8,3v4c-5.4-0.1-8.1-2.5-8.2-7H497z M508.6,324.9c0,3.5-2.6,5.4-7.9,5.5v-4h0
			c1.7,0,2.5-0.4,2.5-1.3s-1.2-1.7-3.6-2.4c-2.4-0.7-4.2-1.5-5.3-2.4c-1.2-0.9-1.8-2-1.8-3.5c0-3.5,2.5-5.4,7.5-5.5v4
			c-1.4,0.1-2.1,0.5-2.1,1.3c0,0.8,0.9,1.4,2.5,1.9c1.7,0.5,3.4,1.2,5.3,2.2C507.6,321.8,508.6,323.2,508.6,324.9z M503.1,317.7
			c0-1.4-0.8-2.2-2.4-2.4v-4c5,0.1,7.5,2.2,7.6,6.4L503.1,317.7z"/>
		<path class="st1" d="M522.7,329.9v-26.4h6.2v26.4H522.7z"/>
		<path class="st1" d="M531.1,329.9v-18h5.5v18H531.1z M546.8,329.9h-5.7v-12.2c0.1-1.7-0.7-2.5-2.2-2.5c-0.5,0-0.9,0.2-1.3,0.5
			v-3.2c1-0.7,2.3-1,3.9-1c3.5,0,5.2,2.1,5.3,6.2h0V329.9z"/>
		<path class="st1" d="M549.1,311.8h2.2v4.2h-2.2V311.8z M552,306.4h5.4v17.5c0,1.7,0.7,2.6,2.2,2.6c0.5,0,1.1-0.1,1.8-0.2l0,3.8
			c-0.3,0-0.6,0.1-1,0.1c-0.4,0-1,0.1-1.6,0.2c-4.6,0-6.8-2.1-6.8-6.1V306.4z M558.2,316v-4.2h2.4v4.2H558.2z"/>
		<path class="st1" d="M569.5,318.8h1.8v2.7h-1.8v2.5c0,1.4,0.6,2.2,1.8,2.4v3.9c-4.9-0.1-7.4-2.4-7.4-6.6v-6.1c0-4,2.5-6.1,7.4-6.2
			v4c-1.1,0.1-1.7,0.8-1.8,2.1V318.8z M572.2,321.5v-2.7h1.9v-1.4c0-1.2-0.6-1.9-1.9-2.1v-4c5,0.1,7.5,2.2,7.4,6.3l0,3.8H572.2z
			 M579.6,323.7c0,4.2-2.5,6.4-7.4,6.6v-4c1.3-0.2,1.9-1,1.9-2.3v-0.5h5.5V323.7z"/>
		<path class="st1" d="M582.7,329.9v-18h5.5v18H582.7z M589,313.5c1-1.3,2.5-1.9,4.6-1.9v4.6c-1-0.4-1.9-0.4-2.7-0.2
			s-1.4,0.6-1.8,1.2V313.5z"/>
		<path class="st1" d="M595.9,329.9v-18h5.5v18H595.9z M611.5,329.9h-5.7v-12.2c0.1-1.7-0.7-2.5-2.2-2.5c-0.5,0-0.9,0.2-1.3,0.5
			v-3.2c1-0.7,2.3-1,3.9-1c3.5,0,5.2,2.1,5.3,6.2h0V329.9z"/>
		<path class="st1" d="M620.2,318.8h1.8v2.7h-1.8v2.5c0,1.4,0.6,2.2,1.8,2.4v3.9c-4.9-0.1-7.4-2.4-7.4-6.6v-6.1c0-4,2.5-6.1,7.4-6.2
			v4c-1.1,0.1-1.7,0.8-1.8,2.1V318.8z M622.9,321.5v-2.7h1.9v-1.4c0-1.2-0.6-1.9-1.9-2.1v-4c5,0.1,7.5,2.2,7.4,6.3l0,3.8H622.9z
			 M630.3,323.7c0,4.2-2.5,6.4-7.4,6.6v-4c1.3-0.2,1.9-1,1.9-2.3v-0.5h5.5V323.7z"/>
		<path class="st1" d="M632.4,311.8h2.2v4.2h-2.2V311.8z M635.3,306.4h5.4v17.5c0,1.7,0.7,2.6,2.2,2.6c0.5,0,1.1-0.1,1.8-0.2l0,3.8
			c-0.3,0-0.6,0.1-1,0.1c-0.4,0-1,0.1-1.6,0.2c-4.6,0-6.8-2.1-6.8-6.1V306.4z M641.5,316v-4.2h2.4v4.2H641.5z"/>
		<path class="st1" d="M657.7,311.8h2v4.2h-2V311.8z M660.6,310.6c0-4.4,2.1-6.5,6.3-6.4h2.5v3.8H669c-0.1,0-0.3,0-0.5,0
			s-0.4,0-0.6,0c-1.2,0-1.8,0.9-1.9,2.6v19.3h-5.5V310.6z M667,316v-4.2h2.6v4.2H667z"/>
		<path class="st1" d="M672.1,311.8h5.7v12.2c-0.1,1.7,0.7,2.5,2.2,2.5c0.5,0,0.9-0.2,1.3-0.5v3.2c-1,0.7-2.3,1-3.9,1
			c-3.5,0-5.2-2.1-5.3-6.2h0V311.8z M674.3,308.9v-3.7h4.4v3.7H674.3z M681.2,308.9v-3.7h4.5v3.7H681.2z M687.7,311.8v18h-5.5v-18
			H687.7z"/>
		<path class="st1" d="M691,329.9v-18h5.5v18H691z M697.4,313.5c1-1.3,2.5-1.9,4.6-1.9v4.6c-1-0.4-1.9-0.4-2.7-0.2
			c-0.8,0.2-1.4,0.6-1.8,1.2V313.5z"/>
		<path class="st1" d="M715.5,303.5h6.1v26.4h-6.1V303.5z M722.5,307.9v-4.4h7.9v4.4H722.5z M722.5,318.3v-4.4h7.5v4.4H722.5z"/>
		<path class="st1" d="M732.8,329.9v-26.4h5.5v26.4H732.8z"/>
		<path class="st1" d="M746,318.8h1.8v2.7H746v2.5c0,1.4,0.6,2.2,1.8,2.4v3.9c-4.9-0.1-7.4-2.4-7.4-6.6v-6.1c0-4,2.5-6.1,7.4-6.2v4
			c-1.1,0.1-1.7,0.8-1.8,2.1V318.8z M748.7,321.5v-2.7h1.9v-1.4c0-1.2-0.6-1.9-1.9-2.1v-4c5,0.1,7.5,2.2,7.4,6.3l0,3.8H748.7z
			 M756.2,323.7c0,4.2-2.5,6.4-7.4,6.6v-4c1.3-0.2,1.9-1,1.9-2.3v-0.5h5.5V323.7z"/>
		<path class="st1" d="M759.2,329.9v-18h5.5v18H759.2z M774.9,329.9h-5.7v-12.2c0.1-1.7-0.7-2.5-2.2-2.5c-0.5,0-0.9,0.2-1.3,0.5
			v-3.2c1-0.7,2.3-1,3.9-1c3.5,0,5.2,2.1,5.3,6.2h0V329.9z"/>
		<path class="st1" d="M783,323.3c0,1.8,1,2.8,2.8,3v4c-5.4-0.1-8.1-2.5-8.2-7H783z M794.5,324.9c0,3.5-2.6,5.4-7.9,5.5v-4h0
			c1.7,0,2.5-0.4,2.5-1.3c0-0.9-1.2-1.7-3.6-2.4c-2.4-0.7-4.2-1.5-5.3-2.4c-1.2-0.9-1.8-2-1.8-3.5c0-3.5,2.5-5.4,7.5-5.5v4
			c-1.4,0.1-2.1,0.5-2.1,1.3c0,0.8,0.9,1.4,2.5,1.9c1.7,0.5,3.4,1.2,5.3,2.2C793.6,321.8,794.5,323.2,794.5,324.9z M789.1,317.7
			c0-1.4-0.8-2.2-2.4-2.4v-4c5,0.1,7.5,2.2,7.6,6.4L789.1,317.7z"/>
		<path class="st1" d="M797.5,329.9v-26.4h5.5v26.4H797.5z M805.2,315.1c-0.5,0-0.9,0.2-1.3,0.5v-3.2c1-0.7,2.3-1,3.9-1
			c3.6,0,5.3,2.2,5.3,6.6v6c0,4.1-1.6,6.1-5,6.2c-1.6,0-3-0.4-4.2-1.1v-3.1c0.5,0.4,1,0.6,1.6,0.5c1.3,0,1.9-0.6,1.9-1.7v-7
			C807.5,316,806.8,315.2,805.2,315.1z"/>
		<path class="st1" d="M815.2,311.8h5.7v12.2c-0.1,1.7,0.7,2.5,2.2,2.5c0.5,0,0.9-0.2,1.3-0.5v3.2c-1,0.7-2.3,1-3.9,1
			c-3.5,0-5.2-2.1-5.3-6.2h0V311.8z M830.9,311.8v18h-5.5v-18H830.9z"/>
		<path class="st1" d="M834.2,329.9v-18h5.5v18H834.2z M840.5,313.5c1-1.3,2.5-1.9,4.6-1.9v4.6c-1-0.4-1.9-0.4-2.7-0.2
			c-0.8,0.2-1.4,0.6-1.8,1.2V313.5z"/>
		<path class="st1" d="M854.6,326.2c0.7,0,1.2-0.3,1.6-1v3.2c-0.8,1-1.9,1.5-3.3,1.6c-3.9,0-5.9-2.2-5.9-6.6v-5.6
			c0-4.1,1.6-6.1,5-6.2c1.6,0,3,0.4,4.2,1.1v3.1c-0.5-0.4-1-0.6-1.6-0.5c-1.3,0-1.9,0.6-1.9,1.7v6.7
			C852.5,325.4,853.2,326.2,854.6,326.2z M862.4,311.8v15.6c0,5.6-2.8,8.3-8.3,8.3c-0.5,0-0.9,0-1.4-0.1c-0.5,0-0.9-0.1-1.4-0.2
			l0-3.6c0.5,0.1,1.4,0.2,2.7,0.1c2.1,0,3.2-1.2,3.2-3.4v-16.8H862.4z"/>
	</g>
</g>
</svg>
